<?xml version="1.0" encoding="iso-8859-1"?>
<!-- Generator: Adobe Illustrator 16.0.0, SVG Export Plug-In . SVG Version: 6.00 Build 0)  -->
<!DOCTYPE svg PUBLIC "-//W3C//DTD SVG 1.1//EN" "http://www.w3.org/Graphics/SVG/1.1/DTD/svg11.dtd">
<svg version="1.1" id="Capa_1" xmlns="http://www.w3.org/2000/svg" xmlns:xlink="http://www.w3.org/1999/xlink" x="0px" y="0px"
	 width="585.913px" height="585.913px" viewBox="0 0 585.913 585.913" style="enable-background:new 0 0 585.913 585.913;"
	 xml:space="preserve">
<g>
	<path d="M11.173,46.2v492.311l346.22,47.402V535.33c0.776,0.058,1.542,0.109,2.329,0.109h177.39
		c20.75,0,37.627-16.883,37.627-37.627V86.597c0-20.743-16.877-37.628-37.627-37.628h-177.39c-0.781,0-1.553,0.077-2.329,0.124V0
		L11.173,46.2z M105.502,354.964l-1.404-38.624c-0.42-12.117-0.832-26.751-0.832-41.4l-0.426,0.017
		c-2.918,12.905-6.795,27.241-10.375,38.979l-11.163,38.642l-15.849-0.493l-9.406-37.876c-2.842-11.354-5.812-25.094-7.863-37.651
		l-0.252,0.005c-0.518,13.038-0.893,27.915-1.533,39.924l-1.533,36.531l-17.702-0.571l5.344-95.067l25.867-1.179l8.648,32.303
		c2.78,11.301,5.565,23.522,7.57,35.07h0.391c2.549-11.4,5.633-24.471,8.617-35.543l9.816-33.415l27.951-1.268l5.333,102.29
		L105.502,354.964z M216.945,333.353l-12.761-0.185v24.967l-22.964-0.745v-24.541l-43.73-0.629v-15.177l37.171-62.32l29.523-1.258
		v61.353l12.761,0.021V333.353z M302.72,361.301l-9.595-29.938l-34.57-0.419l-8.346,28.671l-26.814-0.86l35.161-111.615
		l35.849-1.631l39.399,116.794L302.72,361.301z M359.723,70.476h177.39c8.893,0,16.125,7.236,16.125,16.126v411.22
		c0,8.888-7.232,16.127-16.125,16.127h-177.39c-0.792,0-1.563-0.116-2.329-0.232V400.361c17.983,12.537,39.769,19.97,63.297,19.97
		c52.305,0,96.174-36.368,107.938-85.114c-4.295,1.664-9.081,2.656-14.226,2.656c-1.029,0-2.053-0.105-3.077-0.189
		c-12.136,38.51-48.174,66.521-90.636,66.521c-24.336,0-46.474-9.297-63.297-24.398V238.58
		c16.823-15.105,38.961-24.404,63.297-24.404c4.493,0,8.882,0.419,13.208,1.026c1.963-4.68,4.934-9.837,9.259-14.866
		c-7.265-1.501-14.777-2.291-22.467-2.291c-23.528,0-45.318,7.44-63.297,19.971V70.717
		C358.159,70.599,358.926,70.476,359.723,70.476z"/>
	<path d="M275.363,265.667l-0.349,0.01c-1.79,6.811-3.575,15.47-5.525,22.082l-7.069,24.108l26.688-0.025l-7.622-24.292
		C279.315,280.804,277.158,272.376,275.363,265.667z"/>
	<path d="M172.028,292.118l-13.325,22.321v0.319l22.512,0.027v-22.813c0-6.169,0.323-12.513,0.785-19.177l-0.629,0.021
		C178.097,279.547,175.435,285.599,172.028,292.118z"/>
	<path d="M420.69,279.305c-16.482,0-29.896,13.402-29.896,29.896c0,16.482,13.413,29.89,29.896,29.89
		c16.478,0,29.891-13.407,29.891-29.89C450.581,292.707,437.173,279.305,420.69,279.305z M420.69,322.959
		c-7.591,0-13.769-6.168-13.769-13.769c0-7.591,6.178-13.764,13.769-13.764s13.764,6.173,13.764,13.764
		C434.454,316.791,428.281,322.959,420.69,322.959z"/>
	<path d="M475.368,212.554c-3.973,2.113-8.756,5.509-13.963,10.916l14.745,8.735l-0.052-19.211
		C475.856,212.842,475.62,212.688,475.368,212.554z"/>
	<path d="M518.906,278.854c3.412,0.848,6.594,2.191,9.585,3.79c-3.521-14.289-9.785-27.465-18.235-38.985l0.031,33.954
		C513.153,277.73,516.041,278.138,518.906,278.854z"/>
	<path d="M485.458,193.75l0.293,107.219h0.042c0.052,9.045,8.206,17.869,19.9,20.768c13.309,3.36,27.239-2.992,28.729-12.421
		c2.542-10.214-6.157-21.207-19.464-24.527c-6.005-1.467-11.863-1.179-16.776,0.524V172.415c0,0-0.673-4.956-7.203-5.72
		c0,0,0.09,5.641-34.205,29.609c-17.57,13.533-17.521,32.021-17.521,32.021C462.119,192.498,485.458,193.75,485.458,193.75z"/>
</g>
<g>
</g>
<g>
</g>
<g>
</g>
<g>
</g>
<g>
</g>
<g>
</g>
<g>
</g>
<g>
</g>
<g>
</g>
<g>
</g>
<g>
</g>
<g>
</g>
<g>
</g>
<g>
</g>
<g>
</g>
</svg>
