<?xml version="1.0" encoding="iso-8859-1"?>
<!-- Generator: Adobe Illustrator 19.0.0, SVG Export Plug-In . SVG Version: 6.00 Build 0)  -->
<svg version="1.1" id="Layer_1" xmlns="http://www.w3.org/2000/svg" xmlns:xlink="http://www.w3.org/1999/xlink" x="0px" y="0px"
	 viewBox="0 0 512 512" style="enable-background:new 0 0 512 512;" xml:space="preserve">
<path d="M94.68,0c-17.6,0-32,14.4-32,32v448c0,17.6,14.4,32,32,32h322.64c17.6,0,32-14.4,32-32V111.216L338.152,0H94.68z"/>
<polygon style="fill:#999999;" points="338.104,111.2 449.304,111.2 338.152,0 338.104,0 "/>
<g style="opacity:0.25;">
	<polygon style="fill:#FFFFFF;" points="62.68,388.576 62.68,310.56 152.792,310.56 	"/>
</g>
<g>
	<rect x="62.68" y="302.56" style="fill:#848484;" width="386.56" height="8"/>
	<rect x="62.68" y="435.52" style="fill:#848484;" width="386.56" height="8"/>
</g>
<g>
	<path style="fill:#FFFFFF;" d="M154.84,410.032v-74.656h36.8c9.152,0,15.472,1.6,18.944,4.768
		c3.456,3.168,5.184,8.928,5.184,17.232c0,7.536-0.88,12.704-2.592,15.472c-1.728,2.768-5.28,4.688-10.64,5.744v0.48
		c8.272,0.512,12.416,5.344,12.416,14.48v16.464h-14.176v-13.632c0-7.68-3.792-11.536-11.376-11.536h-20.384V410H154.84V410.032z
		 M169,372.96h20.336c4.848,0,8.064-0.864,9.648-2.592c1.6-1.728,2.384-5.2,2.384-10.416c0-5.328-0.688-8.768-2.064-10.32
		c-1.36-1.552-4.352-2.32-8.992-2.32H169V372.96z"/>
	<path style="fill:#FFFFFF;" d="M272.2,395.696h-32.224l-4.64,14.336h-14.992l24.832-74.656h21.264l25.216,74.656h-14.72
		L272.2,395.696z M268.92,385.248l-12.912-38.88l-12.688,38.88L268.92,385.248L268.92,385.248z"/>
	<path style="fill:#FFFFFF;" d="M298.12,410.032v-74.656h36.8c9.152,0,15.472,1.6,18.912,4.768
		c3.472,3.168,5.216,8.928,5.216,17.232c0,7.536-0.88,12.704-2.592,15.472c-1.744,2.768-5.28,4.688-10.656,5.744v0.48
		c8.288,0.512,12.4,5.344,12.4,14.48v16.464h-14.16v-13.632c0-7.68-3.776-11.536-11.376-11.536h-20.368V410H298.12V410.032z
		 M312.296,372.96h20.32c4.88,0,8.096-0.864,9.664-2.592c1.6-1.728,2.368-5.2,2.368-10.416c0-5.328-0.656-8.768-2.032-10.32
		s-4.368-2.32-8.992-2.32h-21.312v25.648H312.296z"/>
</g>
<g>
</g>
<g>
</g>
<g>
</g>
<g>
</g>
<g>
</g>
<g>
</g>
<g>
</g>
<g>
</g>
<g>
</g>
<g>
</g>
<g>
</g>
<g>
</g>
<g>
</g>
<g>
</g>
<g>
</g>
</svg>
