<?xml version="1.0" encoding="iso-8859-1"?>
<!-- Generator: Adobe Illustrator 19.0.0, SVG Export Plug-In . SVG Version: 6.00 Build 0)  -->
<svg version="1.1" id="Capa_1" xmlns="http://www.w3.org/2000/svg" xmlns:xlink="http://www.w3.org/1999/xlink" x="0px" y="0px"
	 viewBox="0 0 512 512" style="enable-background:new 0 0 512 512;" xml:space="preserve">
<path style="fill:#5C5F66;" d="M256,0c-24.81,0-45,20.19-45,45v34.2c0,4.78,2.29,9.28,6.14,12.1c2.61,1.91,5.71,2.9,8.86,2.9
	c1.52,0,3.05-0.23,4.53-0.7c4.51-1.42,9.77-2.45,15.33-2.99c3.39-0.34,6.78-0.52,10.14-0.53c8.86-0.04,17.59,1.08,26.04,3.39
	c4.56,1.21,9.37,0.32,13.06-2.55c3.72-2.84,5.9-7.25,5.9-11.92V45C301,20.19,280.81,0,256,0z"/>
<path style="fill:#B8BFCC;" d="M256,512c-20.229,0-39.067-7.896-53.042-22.222C188.896,476.097,181,457.259,181,437
	c0-8.291,6.709-15,15-15h120c8.291,0,15,6.709,15,15C331,478.353,297.353,512,256,512z"/>
<path style="fill:#C4CAD9;" d="M30.264,294.272c-6.064,0-11.777-3.706-14.048-9.727C5.464,255.908,0,225.776,0,195
	c0-40.049,9.067-78.428,26.953-114.038c3.721-7.412,12.715-10.386,20.127-6.68c7.412,3.721,10.4,12.729,6.68,20.127
	C37.998,125.815,30,159.668,30,195c0,27.158,4.819,53.73,14.312,78.999c2.9,7.749-1.011,16.406-8.774,19.321
	C33.809,293.965,32.021,294.272,30.264,294.272z"/>
<path style="fill:#B8BFCC;" d="M481.736,294.272c-1.758,0-3.545-0.308-5.273-0.952c-7.764-2.915-11.675-11.572-8.774-19.321
	C477.181,248.73,482,222.158,482,195c0-35.332-7.998-69.185-23.76-100.591c-3.721-7.397-0.732-16.406,6.68-20.127
	c7.441-3.677,16.421-0.718,20.127,6.68C502.933,116.572,512,154.951,512,195c0,30.776-5.464,60.908-16.216,89.546
	C493.514,290.566,487.801,294.272,481.736,294.272z"/>
<path style="fill:#C4CAD9;" d="M77.93,242.563c-7.104,0-13.418-5.068-14.736-12.305C61.069,218.701,60,206.836,60,195
	c0-15.366,1.802-30.674,5.361-45.498c1.934-8.086,10.02-13.081,18.091-11.089c8.057,1.934,13.022,10.034,11.089,18.091
	C91.523,169.043,90,181.992,90,195c0,10.034,0.908,20.083,2.695,29.868c1.494,8.145-3.896,15.952-12.056,17.446
	C79.731,242.49,78.823,242.563,77.93,242.563z"/>
<path style="fill:#B8BFCC;" d="M434.07,242.563c-0.894,0-1.802-0.073-2.71-0.249c-8.159-1.494-13.55-9.302-12.056-17.446
	C421.092,215.083,422,205.034,422,195c0-13.008-1.523-25.957-4.541-38.496c-1.934-8.057,3.032-16.157,11.089-18.091
	c8.027-1.919,16.157,3.018,18.091,11.089C450.198,164.326,452,179.634,452,195c0,11.836-1.069,23.701-3.193,35.259
	C447.488,237.495,441.175,242.563,434.07,242.563z"/>
<path style="fill:#979CA7;" d="M331,437c0-8.291-6.709-15-15-15h-60v90C297.353,512,331,478.353,331,437z"/>
<path style="fill:#53565C;" d="M301,45v33.9c0,4.67-2.18,9.08-5.9,11.92c-3.69,2.87-8.5,3.76-13.06,2.55
	c-8.45-2.31-17.18-3.43-26.04-3.39V0C280.81,0,301,20.19,301,45z"/>
<path style="fill:#FFDE33;" d="M447.61,366.39C409.15,327.94,392,287.67,392,240.29V195c0-61.66-42.65-115.39-102.04-130.58
	c-11.07-3.01-22.47-4.51-33.96-4.47c-4.36,0.02-8.75,0.26-13.13,0.72c-7.5,0.71-14.89,2.17-20.66,4.02
	C163.57,80.02,120,136.96,120,200.1v40.19c0,47.38-17.15,87.65-55.61,126.1c-4.29,4.3-5.58,10.74-3.25,16.35
	c2.32,5.61,7.8,9.26,13.86,9.26h362c6.06,0,11.54-3.65,13.86-9.26C453.19,377.13,451.9,370.69,447.61,366.39z"/>
<path style="fill:#FFBC33;" d="M450.86,382.74c-2.32,5.61-7.8,9.26-13.86,9.26H256V59.95c11.49-0.04,22.89,1.46,33.96,4.47
	C349.35,79.61,392,133.34,392,195v45.29c0,47.38,17.15,87.65,55.61,126.1C451.9,370.69,453.19,377.13,450.86,382.74z"/>
<path style="fill:#FCB33B;" d="M437,452H75c-24.814,0-45-20.186-45-45s20.186-45,45-45h362c24.814,0,45,20.186,45,45
	S461.814,452,437,452z"/>
<path style="fill:#F69838;" d="M256,452h181c24.814,0,45-20.186,45-45s-20.186-45-45-45H256V452z"/>
<g>
</g>
<g>
</g>
<g>
</g>
<g>
</g>
<g>
</g>
<g>
</g>
<g>
</g>
<g>
</g>
<g>
</g>
<g>
</g>
<g>
</g>
<g>
</g>
<g>
</g>
<g>
</g>
<g>
</g>
</svg>
