<?xml version="1.0" encoding="iso-8859-1"?>
<!-- Generator: Adobe Illustrator 19.0.0, SVG Export Plug-In . SVG Version: 6.00 Build 0)  -->
<svg version="1.1" id="Capa_1" xmlns="http://www.w3.org/2000/svg" xmlns:xlink="http://www.w3.org/1999/xlink" x="0px" y="0px"
	 viewBox="0 0 512.002 512.002" style="enable-background:new 0 0 512.002 512.002;" xml:space="preserve">
<path style="fill:#4BA7E0;" d="M256.02,11.168c-137.241,0-248.496,111.256-248.496,248.497c0,116.15,79.693,213.679,187.38,240.914
	c0-6.671,0-53.67,0-60.224c0-33.686-17.773-62.847-17.773-62.847L70.924,223.988c-11.244-16.259,4.17-37.63,23.09-32.283
	c4.548,1.285,8.692,4.099,11.589,8.29l86.531,125.08c2.939,3.988,14.556,17.478,37.194,17.478c19.195,0,33.891,0,53.379,0
	c22.641,0,34.258-13.489,37.196-17.478l86.53-125.08c2.482-3.591,5.886-6.171,9.668-7.645c19.269-7.511,36.842,14.546,25.009,31.638
	L334.91,377.506c0,0-17.774,29.161-17.774,62.847c0,6.55,0,53.547,0,60.224c107.686-27.235,187.38-124.763,187.38-240.914
	C504.516,122.424,393.261,11.168,256.02,11.168z M255.021,304.163c-30.141,0-54.576-24.433-54.576-54.574
	c0-30.14,24.436-54.574,54.576-54.574c30.143,0,54.575,24.435,54.575,54.574C309.596,279.731,285.163,304.163,255.021,304.163z"/>
<g>
	<path style="fill:#4B87DD;" d="M269.545,302.195c34.919,9.612,69.1-16.719,69.1-52.606c0-35.916-34.22-62.214-69.1-52.605
		c23.089,6.361,40.051,27.496,40.051,52.605C309.596,274.699,292.634,295.833,269.545,302.195z"/>
	<path style="fill:#4B87DD;" d="M346.186,440.354c0-33.686,17.774-62.847,17.774-62.847l106.201-153.519
		c11.784-17.021-5.65-39.184-25.009-31.638c-2.504,0.976-4.837,2.447-6.852,4.367c7.447,7.064,8.789,18.636,2.811,27.271
		L334.91,377.506c0,0-17.774,29.161-17.774,62.847c0,6.55,0,53.547,0,60.224c9.936-2.513,19.631-5.629,29.049-9.297
		C346.186,480.446,346.186,451.995,346.186,440.354z"/>
	<path style="fill:#4B87DD;" d="M36.573,259.664c0-132.363,103.493-240.541,233.971-248.063
		C127.127,3.329,7.523,117.295,7.523,259.664c0,116.15,79.693,213.679,187.38,240.914v-9.297
		C102.241,455.182,36.573,365.098,36.573,259.664z"/>
	<path style="fill:#4B87DD;" d="M221.185,325.076l-86.531-125.08c-7.246-10.481-22.298-12.342-31.856-3.263
		c2.307,2.203-4.443-7.215,89.337,128.344c2.939,3.988,14.556,17.478,37.194,17.478c6.165,0,22.932,0,29.049,0
		C235.74,342.553,224.124,329.065,221.185,325.076z"/>
</g>
<g>
	<path style="fill:#6EDCF9;" d="M200.508,252.164h-58.814l10.378,15.002h51.28C201.741,262.423,200.751,257.393,200.508,252.164z"/>
	<path style="fill:#6EDCF9;" d="M370.345,252.164h-60.814c-0.243,5.228-1.231,10.259-2.844,15.002h53.28L370.345,252.164z"/>
	<path style="fill:#6EDCF9;" d="M256.02,3.667c0,0-2.645-0.015-7.403,0.114C119.414,7.52,16.947,105.826,1.954,227.956
		c-16.166,131.718,69.749,250.358,192.949,280.373c0-13.279,0-19.956,0-33.357c-29.997-26.764-49.904-68.814-60.989-107.556
		c10.911-1.428,22.161-2.661,33.677-3.696l-9.777-14.133c-9.447,0.94-18.708,2.014-27.742,3.219
		c-4.303-17.98-7.331-36.88-9.023-56.363l-16.399-23.704c0.84,28.552,4.424,56.25,10.533,82.198
		c-26.994,4.149-51.654,9.51-72.912,15.941c-15.872-29.959-25.923-65.976-27.118-103.712h85.643l-10.379-15.002H15.153
		c1.033-35.184,10.13-71.55,27.117-103.712c21.258,6.431,45.918,11.789,72.912,15.941c-2.983,12.672-5.357,25.768-7.111,39.171
		l13.022,18.823c1.7-19.306,4.712-38.036,8.978-55.861c36.603,4.883,76.898,7.631,118.448,7.926v20.962
		c4.955-0.588,9.84-0.542,15.001,0.264v-21.226c41.55-0.295,81.845-3.043,118.448-7.926c4.266,17.824,7.278,36.555,8.979,55.861
		l13.021-18.823c-1.753-13.403-4.126-26.497-7.111-39.17c26.994-4.15,51.654-9.51,72.912-15.941
		c16.304,31.208,25.971,66.404,27.118,103.712h-75.267l-10.378,15.002h85.645c-1.126,36.362-10.298,71.541-27.119,103.712
		c-21.258-6.431-45.918-11.79-72.912-15.941c6.11-25.949,9.694-53.649,10.533-82.201l-16.398,23.704
		c-1.692,19.484-4.721,38.385-9.023,56.366c-9.034-1.205-18.295-2.278-27.742-3.219l-9.776,14.133
		c11.516,1.035,22.766,2.268,33.676,3.696c-11.077,38.715-30.975,80.775-60.988,107.556c0,13.408,0,20.075,0,33.363
		C425.05,482.03,508.159,385.82,511.873,267.927C516.393,124.146,401.551,3.667,256.02,3.667z M118.935,369.526
		c12.541,44.848,36.114,93.568,72.839,122.395C131.46,475.211,81.05,435.804,49.824,384.278
		C70.093,378.345,93.448,373.391,118.935,369.526z M118.935,149.804c-25.487-3.864-48.842-8.819-69.112-14.752
		C81.244,83.23,131.578,44.083,191.774,27.407C155.182,56.129,131.563,104.647,118.935,149.804z M248.519,159.449
		c-40.226-0.289-79.188-2.9-114.604-7.535C151.599,90.104,191.105,24.6,248.519,19.045V159.449z M263.521,159.449V19.045
		c58.442,5.657,97.449,72.902,114.605,132.869C342.709,156.549,303.745,159.16,263.521,159.449z M393.105,149.804
		c-12.542-44.848-36.114-93.572-72.841-122.397c59.146,16.386,109.86,54.715,141.963,107.643
		C441.955,140.982,418.597,145.938,393.105,149.804z M320.263,491.923c16.281-12.779,31.207-30.515,44.116-52.782
		c11.957-20.624,21.602-44.142,28.724-69.613c25.49,3.865,48.849,8.82,69.121,14.754
		C430.898,435.834,380.819,475.145,320.263,491.923z"/>
	<path style="fill:#6EDCF9;" d="M248.519,303.765v38.788c4.282,0,9.999,0,15.001,0v-39.052
		C258.374,304.305,253.49,304.354,248.519,303.765z"/>
</g>
<g>
</g>
<g>
</g>
<g>
</g>
<g>
</g>
<g>
</g>
<g>
</g>
<g>
</g>
<g>
</g>
<g>
</g>
<g>
</g>
<g>
</g>
<g>
</g>
<g>
</g>
<g>
</g>
<g>
</g>
</svg>
