<?xml version="1.0" encoding="iso-8859-1"?>
<!-- Generator: Adobe Illustrator 19.0.0, SVG Export Plug-In . SVG Version: 6.00 Build 0)  -->
<svg version="1.1" id="Layer_1" xmlns="http://www.w3.org/2000/svg" xmlns:xlink="http://www.w3.org/1999/xlink" x="0px" y="0px"
	 viewBox="0 0 512 512" style="enable-background:new 0 0 512 512;" xml:space="preserve">
<polygon style="fill:#7A609E;" points="33.338,471.35 0,471.35 0,3.378 50.146,3.378 105.397,3.378 512,3.378 512,471.35 
	476.456,471.35 "/>
<g>
	<path style="fill:#52D6C6;" d="M198.466,424.896h-28.219v-24.259h0.002l14.757-16.252c5.54-6.101,8.609-14.047,8.609-22.288
		v-44.906c0-19.846-16.088-35.933-35.933-35.933h-19.981c-19.845,0-35.933,16.087-35.933,35.933v44.906
		c0,8.241,3.069,16.187,8.609,22.288l14.756,16.252h-0.003v24.259H96.917c-19.387,0-35.25,15.863-35.25,35.25v48.476h172.049
		v-48.476C233.716,440.759,217.854,424.896,198.466,424.896z"/>
	<path style="fill:#52D6C6;" d="M415.082,424.896H386.87v-24.259h-0.005l14.757-16.252c5.54-6.101,8.609-14.047,8.609-22.288
		v-44.906c0-19.846-16.087-35.933-35.933-35.933h-19.981c-19.846,0-35.933,16.087-35.933,35.933v44.906
		c0,8.241,3.069,16.187,8.609,22.288l14.756,16.252h-0.023v24.259h-28.193c-19.387,0-35.25,15.863-35.25,35.25v48.476h172.049
		v-48.476C450.332,440.759,434.469,424.896,415.082,424.896z"/>
</g>
<g style="opacity:0.1;">
	<path d="M168.05,317.192v44.906c0,8.241-3.069,16.187-8.609,22.288l-14.757,16.252h-0.005v24.259h25.568l0.002-24.259l0,0
		l14.757-16.252c5.54-6.101,8.609-14.047,8.609-22.288v-44.906c0-19.846-16.088-35.933-35.933-35.933h-19.981
		c-0.941,0-1.869,0.047-2.792,0.118C153.449,282.803,168.05,298.287,168.05,317.192z"/>
	<path d="M198.466,424.896h-25.564c19.387,0,35.25,15.863,35.25,35.25v48.476h25.564v-48.476
		C233.716,440.759,217.854,424.896,198.466,424.896z"/>
</g>
<g style="opacity:0.1;">
	<path d="M384.667,317.192v44.906c0,8.241-3.069,16.187-8.609,22.288l-14.757,16.252h-0.023v24.259h25.569v-24.259h0.02
		l14.757-16.252c5.54-6.101,8.609-14.047,8.609-22.288v-44.906c0-19.846-16.087-35.933-35.933-35.933h-19.981
		c-0.941,0-1.869,0.047-2.792,0.118C370.065,282.803,384.667,298.287,384.667,317.192z"/>
	<path d="M415.082,424.896h-25.564c19.387,0,35.25,15.863,35.25,35.25v48.476h25.564v-48.476
		C450.332,440.759,434.469,424.896,415.082,424.896z"/>
</g>
<path style="fill:#FDC00F;" d="M445.51,84.594c-11.57,0-20.949,9.379-20.949,20.949c0,1.679,0.218,3.303,0.591,4.868l-88.657,56.875
	c-3.751-3.533-8.789-5.714-14.348-5.714c-4.743,0-9.103,1.595-12.615,4.252l-89.472-46.423c-0.233-0.121-0.471-0.228-0.709-0.324
	c0.244-1.279,0.383-2.597,0.383-3.948c0-11.57-9.379-20.949-20.949-20.949c-11.57,0-20.949,9.379-20.949,20.949
	c0,0.813,0.058,1.612,0.148,2.401l-89.313,44.656c-3.61-2.952-8.221-4.726-13.248-4.726c-11.57,0-20.949,9.379-20.949,20.949
	s9.379,20.949,20.949,20.949s20.949-9.379,20.949-20.949c0-0.728-0.037-1.447-0.11-2.155l89.487-44.743
	c3.579,2.852,8.104,4.568,13.036,4.568c4.492,0,8.644-1.427,12.056-3.834c0.541,0.52,1.161,0.976,1.861,1.339l88.722,46.033
	c-0.132,0.951-0.225,1.916-0.225,2.904c0,11.57,9.379,20.949,20.949,20.949c11.57,0,20.949-9.379,20.949-20.949
	c0-0.159-0.02-0.313-0.023-0.472l91.472-58.68c3.192,1.968,6.94,3.123,10.965,3.123c11.57,0,20.949-9.379,20.949-20.949
	S457.08,84.594,445.51,84.594z"/>
<g>
</g>
<g>
</g>
<g>
</g>
<g>
</g>
<g>
</g>
<g>
</g>
<g>
</g>
<g>
</g>
<g>
</g>
<g>
</g>
<g>
</g>
<g>
</g>
<g>
</g>
<g>
</g>
<g>
</g>
</svg>
