<?xml version="1.0" encoding="iso-8859-1"?>
<!-- Generator: Adobe Illustrator 19.0.0, SVG Export Plug-In . SVG Version: 6.00 Build 0)  -->
<svg version="1.1" id="Layer_1" xmlns="http://www.w3.org/2000/svg" xmlns:xlink="http://www.w3.org/1999/xlink" x="0px" y="0px"
	 viewBox="0 0 512.883 512.883" style="enable-background:new 0 0 512.883 512.883;" xml:space="preserve">
<g transform="translate(1 1)">
	<g>
		<path style="fill:#FFE100;" d="M228.517,295.166c-5.297,0-8.828-3.531-8.828-8.828V100.959c0-5.297,3.531-8.828,8.828-8.828
			s8.828,3.531,8.828,8.828v185.379C237.345,291.634,233.814,295.166,228.517,295.166z"/>
		<path style="fill:#FFE100;" d="M43.138,295.166c-5.297,0-8.828-3.531-8.828-8.828V100.959c0-5.297,3.531-8.828,8.828-8.828
			s8.828,3.531,8.828,8.828v185.379C51.966,291.634,48.434,295.166,43.138,295.166z"/>
		<path style="fill:#FFE100;" d="M263.828,145.097h-256c-5.297,0-8.828-3.531-8.828-8.828c0-5.297,3.531-8.828,8.828-8.828h256
			c5.297,0,8.828,3.531,8.828,8.828C272.655,141.566,269.124,145.097,263.828,145.097z"/>
		<path style="fill:#FFE100;" d="M263.828,180.407h-256c-5.297,0-8.828-3.531-8.828-8.828s3.531-8.828,8.828-8.828h256
			c5.297,0,8.828,3.531,8.828,8.828S269.124,180.407,263.828,180.407z"/>
		<path style="fill:#FFE100;" d="M263.828,215.717h-256c-5.297,0-8.828-3.531-8.828-8.828s3.531-8.828,8.828-8.828h256
			c5.297,0,8.828,3.531,8.828,8.828S269.124,215.717,263.828,215.717z"/>
		<path style="fill:#FFE100;" d="M263.828,251.028h-256C2.531,251.028-1,247.497-1,242.2s3.531-8.828,8.828-8.828h256
			c5.297,0,8.828,3.531,8.828,8.828S269.124,251.028,263.828,251.028z"/>
	</g>
	<path id="SVGCleanerId_0" style="fill:#FFE100;" d="M470.393,209.538l-76.8-84.745c-3.531-3.531,16.772-6.179,11.476-6.179h-81.214
		c-8.828,0-15.89,7.062-15.89,15.89V277.51H43.138v75.917c0,7.062,5.297,12.359,12.359,12.359h14.124
		c0-29.131-2.648-52.966,26.483-52.966s52.966,23.834,52.966,52.966h158.897h44.138c0-29.131,23.834-52.966,52.966-52.966
		c29.131,0,44.138,23.834,44.138,52.966h14.124c7.062,0,12.359-5.297,12.359-12.359V223.662
		C475.69,218.366,473.924,213.952,470.393,209.538"/>
	<path id="SVGCleanerId_1" style="fill:#FFFFFF;" d="M43.138,353.428V277.51H16.655v75.917c0,7.062,5.297,12.359,12.359,12.359
		h14.124c0-2.648,0-5.297,0.883-8.828C43.138,356.076,43.138,354.31,43.138,353.428"/>
	<path id="SVGCleanerId_2" style="fill:#FFA800;" d="M496.876,209.538l-76.8-84.745c-3.531-4.414-8.828-6.179-14.124-7.062
		c0,0.883-15.89,2.648-12.359,7.062l76.8,84.745c3.531,3.531,5.297,8.828,5.297,14.124v129.766c0,7.062-5.297,12.359-12.359,12.359
		h26.483c7.062,0,12.359-5.297,12.359-12.359V223.662C502.172,218.366,500.407,213.069,496.876,209.538"/>
	<path id="SVGCleanerId_3" style="fill:#63D3FD;" d="M393.593,125.676c-3.531-4.414-9.71-7.062-15.007-7.062h-19.421
		c-4.414,0-7.062,2.648-7.062,6.179v93.572c0,3.531,2.648,6.179,6.179,6.179H475.69v-0.883c0-5.297-1.766-9.71-5.297-14.124
		L393.593,125.676z"/>
	<path id="SVGCleanerId_4" style="fill:#3DB9F9;" d="M496.876,209.538l-76.8-84.745c-3.531-3.531-9.71-6.179-15.007-6.179h-26.483
		c6.179,0,11.476,2.648,15.007,7.062l76.8,84.745c3.531,3.531,5.297,8.828,5.297,14.124v0h26.483v-0.883
		C502.172,218.366,500.407,213.952,496.876,209.538"/>
	<path id="SVGCleanerId_5" style="fill:#FECC00;" d="M431.552,365.786c0,29.131-17.655,52.966-39.724,52.966
		s-39.724-23.835-39.724-52.966c0-29.131,17.655-52.966,39.724-52.966S431.552,336.655,431.552,365.786"/>
	<path id="SVGCleanerId_6" style="fill:#FFA800;" d="M405.069,312.821c-2.648,0-5.297,0-7.945,0.883
		c19.421,3.531,34.428,25.6,34.428,52.083s-15.007,48.552-34.428,52.083c2.648,0,5.297,0.883,7.945,0.883
		c29.131,0,52.966-23.835,52.966-52.966C458.034,336.655,434.2,312.821,405.069,312.821"/>
	<path id="SVGCleanerId_7" style="fill:#FECC00;" d="M122.586,365.786c0,29.131-17.655,52.966-39.724,52.966
		s-39.724-23.835-39.724-52.966c0-29.131,17.655-52.966,39.724-52.966S122.586,336.655,122.586,365.786"/>
	<path id="SVGCleanerId_8" style="fill:#FFA800;" d="M96.103,312.821c-2.648,0-5.297,0-7.945,0.883
		c19.421,3.531,34.428,25.6,34.428,52.083s-15.007,48.552-34.428,52.083c2.648,0.883,5.297,0.883,7.945,0.883
		c29.131,0,52.966-23.835,52.966-52.966C149.069,336.655,125.234,312.821,96.103,312.821"/>
	<g>
		<path id="SVGCleanerId_0_1_" style="fill:#FFE100;" d="M470.393,209.538l-76.8-84.745c-3.531-3.531,16.772-6.179,11.476-6.179
			h-81.214c-8.828,0-15.89,7.062-15.89,15.89V277.51H43.138v75.917c0,7.062,5.297,12.359,12.359,12.359h14.124
			c0-29.131-2.648-52.966,26.483-52.966s52.966,23.834,52.966,52.966h158.897h44.138c0-29.131,23.834-52.966,52.966-52.966
			c29.131,0,44.138,23.834,44.138,52.966h14.124c7.062,0,12.359-5.297,12.359-12.359V223.662
			C475.69,218.366,473.924,213.952,470.393,209.538"/>
	</g>
	<g>
		<path id="SVGCleanerId_1_1_" style="fill:#FFFFFF;" d="M43.138,353.428V277.51H16.655v75.917c0,7.062,5.297,12.359,12.359,12.359
			h14.124c0-2.648,0-5.297,0.883-8.828C43.138,356.076,43.138,354.31,43.138,353.428"/>
	</g>
	<g>
		<path id="SVGCleanerId_2_1_" style="fill:#FFA800;" d="M496.876,209.538l-76.8-84.745c-3.531-4.414-8.828-6.179-14.124-7.062
			c0,0.883-15.89,2.648-12.359,7.062l76.8,84.745c3.531,3.531,5.297,8.828,5.297,14.124v129.766c0,7.062-5.297,12.359-12.359,12.359
			h26.483c7.062,0,12.359-5.297,12.359-12.359V223.662C502.172,218.366,500.407,213.069,496.876,209.538"/>
	</g>
	<g>
		<path id="SVGCleanerId_3_1_" style="fill:#63D3FD;" d="M393.593,125.676c-3.531-4.414-9.71-7.062-15.007-7.062h-19.421
			c-4.414,0-7.062,2.648-7.062,6.179v93.572c0,3.531,2.648,6.179,6.179,6.179H475.69v-0.883c0-5.297-1.766-9.71-5.297-14.124
			L393.593,125.676z"/>
	</g>
	<g>
		<path id="SVGCleanerId_4_1_" style="fill:#3DB9F9;" d="M496.876,209.538l-76.8-84.745c-3.531-3.531-9.71-6.179-15.007-6.179
			h-26.483c6.179,0,11.476,2.648,15.007,7.062l76.8,84.745c3.531,3.531,5.297,8.828,5.297,14.124v0h26.483v-0.883
			C502.172,218.366,500.407,213.952,496.876,209.538"/>
	</g>
	<g>
		<path id="SVGCleanerId_5_1_" style="fill:#FECC00;" d="M431.552,365.786c0,29.131-17.655,52.966-39.724,52.966
			s-39.724-23.835-39.724-52.966c0-29.131,17.655-52.966,39.724-52.966S431.552,336.655,431.552,365.786"/>
	</g>
	<g>
		<path id="SVGCleanerId_6_1_" style="fill:#FFA800;" d="M405.069,312.821c-2.648,0-5.297,0-7.945,0.883
			c19.421,3.531,34.428,25.6,34.428,52.083s-15.007,48.552-34.428,52.083c2.648,0,5.297,0.883,7.945,0.883
			c29.131,0,52.966-23.835,52.966-52.966C458.034,336.655,434.2,312.821,405.069,312.821"/>
	</g>
	<g>
		<path id="SVGCleanerId_7_1_" style="fill:#FECC00;" d="M122.586,365.786c0,29.131-17.655,52.966-39.724,52.966
			s-39.724-23.835-39.724-52.966c0-29.131,17.655-52.966,39.724-52.966S122.586,336.655,122.586,365.786"/>
	</g>
	<g>
		<path id="SVGCleanerId_8_1_" style="fill:#FFA800;" d="M96.103,312.821c-2.648,0-5.297,0-7.945,0.883
			c19.421,3.531,34.428,25.6,34.428,52.083s-15.007,48.552-34.428,52.083c2.648,0.883,5.297,0.883,7.945,0.883
			c29.131,0,52.966-23.835,52.966-52.966C149.069,336.655,125.234,312.821,96.103,312.821"/>
	</g>
	<path d="M405.069,427.579c-34.428,0-61.793-27.366-61.793-61.793s27.366-61.793,61.793-61.793s61.793,27.366,61.793,61.793
		S439.497,427.579,405.069,427.579z M405.069,321.648c-24.717,0-44.138,19.421-44.138,44.138c0,24.717,19.421,44.138,44.138,44.138
		c24.717,0,44.138-19.421,44.138-44.138C449.207,341.069,429.786,321.648,405.069,321.648z"/>
	<path d="M96.103,427.579c-34.428,0-61.793-27.366-61.793-61.793s27.366-61.793,61.793-61.793s61.793,27.366,61.793,61.793
		S130.531,427.579,96.103,427.579z M96.103,321.648c-24.717,0-44.138,19.421-44.138,44.138c0,24.717,19.421,44.138,44.138,44.138
		s44.138-19.421,44.138-44.138C140.241,341.069,120.821,321.648,96.103,321.648z"/>
	<path d="M502.172,277.51h-52.966c-5.297,0-8.828-3.531-8.828-8.828c0-5.297,3.531-8.828,8.828-8.828h52.966
		c5.297,0,8.828,3.531,8.828,8.828C511,273.979,507.469,277.51,502.172,277.51z"/>
	<path d="M489.814,374.614h-40.607v-8.828c0-24.717-19.421-44.138-44.138-44.138c-24.717,0-44.138,19.421-44.138,44.138v8.828
		h-220.69v-8.828c0-24.717-19.421-44.138-44.138-44.138s-44.138,19.421-44.138,44.138v8.828H29.014
		c-11.476,0-21.186-9.71-21.186-21.186v-84.745h291.31V133.621c0-13.241,10.593-23.834,24.717-23.834h81.214
		c7.945,0,15.89,3.531,22.069,9.71l76.8,84.745c5.297,5.297,7.945,12.359,7.945,20.303V354.31
		C511,364.903,501.29,374.614,489.814,374.614z M465.979,356.959h23.835c1.766,0,3.531-1.766,3.531-3.531V223.662
		c0-2.648-0.883-6.179-3.531-7.945l-75.917-84.745c-2.648-1.766-6.179-3.531-8.828-3.531h-81.214c-4.414,0-7.062,2.648-7.062,6.179
		v152.717H25.483v67.09c0,1.766,1.766,3.531,3.531,3.531h6.179c4.414-30.014,30.014-52.966,60.91-52.966s56.497,22.952,60.91,52.966
		h186.262c4.414-30.014,30.014-52.966,60.91-52.966S461.566,326.945,465.979,356.959z"/>
	<path d="M113.759,365.786c0,9.71-7.945,17.655-17.655,17.655s-17.655-7.945-17.655-17.655s7.945-17.655,17.655-17.655
		S113.759,356.076,113.759,365.786"/>
	<path d="M422.724,365.786c0,9.71-7.945,17.655-17.655,17.655s-17.655-7.945-17.655-17.655s7.945-17.655,17.655-17.655
		S422.724,356.076,422.724,365.786"/>
	<path d="M502.172,233.372h-143.89c-7.945,0-15.007-7.062-15.007-15.007v-93.572c0-7.945,7.062-15.007,15.007-15.007h46.786
		c7.945,0,15.89,3.531,22.069,9.71l76.8,84.745c5.297,5.297,7.945,12.359,7.945,20.303v8.828H502.172z M360.931,215.717h128.883
		l-75.917-84.745c-2.648-1.766-6.179-3.531-8.828-3.531h-44.138V215.717z"/>
	<path d="M237.345,286.338c-5.297,0-8.828-3.531-8.828-8.828V92.131c0-5.297,3.531-8.828,8.828-8.828s8.828,3.531,8.828,8.828
		V277.51C246.172,282.807,242.641,286.338,237.345,286.338z"/>
	<path d="M51.966,286.338c-5.297,0-8.828-3.531-8.828-8.828V92.131c0-5.297,3.531-8.828,8.828-8.828s8.828,3.531,8.828,8.828V277.51
		C60.793,282.807,57.262,286.338,51.966,286.338z"/>
	<path d="M272.655,136.269h-256c-5.297,0-8.828-3.531-8.828-8.828s3.531-8.828,8.828-8.828h256c5.297,0,8.828,3.531,8.828,8.828
		S277.952,136.269,272.655,136.269z"/>
	<path d="M272.655,171.579h-256c-5.297,0-8.828-3.531-8.828-8.828s3.531-8.828,8.828-8.828h256c5.297,0,8.828,3.531,8.828,8.828
		S277.952,171.579,272.655,171.579z"/>
	<path d="M272.655,206.89h-256c-5.297,0-8.828-3.531-8.828-8.828s3.531-8.828,8.828-8.828h256c5.297,0,8.828,3.531,8.828,8.828
		S277.952,206.89,272.655,206.89z"/>
	<path d="M272.655,242.2h-256c-5.297,0-8.828-3.531-8.828-8.828s3.531-8.828,8.828-8.828h256c5.297,0,8.828,3.531,8.828,8.828
		S277.952,242.2,272.655,242.2z"/>
</g>
<g>
</g>
<g>
</g>
<g>
</g>
<g>
</g>
<g>
</g>
<g>
</g>
<g>
</g>
<g>
</g>
<g>
</g>
<g>
</g>
<g>
</g>
<g>
</g>
<g>
</g>
<g>
</g>
<g>
</g>
</svg>
