<?xml version="1.0" encoding="iso-8859-1"?>
<!-- Generator: Adobe Illustrator 19.0.0, SVG Export Plug-In . SVG Version: 6.00 Build 0)  -->
<svg version="1.1" id="Layer_1" xmlns="http://www.w3.org/2000/svg" xmlns:xlink="http://www.w3.org/1999/xlink" x="0px" y="0px"
	 viewBox="0 0 489.007 489.007" style="enable-background:new 0 0 489.007 489.007;" xml:space="preserve">
<path style="fill:#8AA8A7;" d="M481.328,13.61c-44,0-120.8,45.6-189.6,115.2c-68.8,68.8-115.2,145.6-115.2,189.6
	c0,3.2,1.6,5.6,4.8,6.4c2.4,0.8,5.6,0.8,8-1.6l296.8-297.6c2.4-2.4,2.4-4.8,1.6-8C486.928,15.21,484.528,13.61,481.328,13.61z"/>
<path style="fill:#99B5B5;" d="M291.728,128.01c-68.8,68.8-115.2,145.6-115.2,189.6c0,3.2,1.6,5.6,4.8,6.4c2.4,0.8,5.6,0.8,8-1.6
	l3.2-3.2l179.2-258.4C345.328,79.21,318.128,101.61,291.728,128.01z"/>
<path style="fill:#638280;" d="M355.728,156.81l64.8-64c-5.6-0.8-8-1.6-16-2.4v-42.4c0-2.4-2.4-4-3.2-6.4
	c-19.2,11.2-36.8,24.8-60.8,40.8v12c-8,1.6-15.2,4.8-22.4,8c-9.6,8-18.4,16.8-27.2,26.4c-9.6,9.6-18.4,19.2-26.4,28.8
	c-4.8,12-7.2,24.8-7.2,38.4c0,18.4,4.8,34.4,12,47.2l63.2-63.2C334.928,170.41,342.128,160.81,355.728,156.81z"/>
<path style="fill:#FFB000;" d="M393.328,206.41c-48-20-61.6-32-61.6-52c0-17.6,12-36,47.2-36c34.4,0,55.2,12,64.8,17.6
	c3.2,1.6,7.2,2.4,10.4,0.8c3.2-1.6,6.4-4,8-7.2l14.4-36.8c2.4-5.6,0.8-12.8-4.8-15.2c-20.8-12-43.2-19.2-67.2-21.6v-42.4
	c0-7.2-7.2-8.8-14.4-8.8h-35.2c-6.4,0-14.4,1.6-14.4,8.8v46.4c-48,12.8-84,51.2-84,100.8c0,61.6,48.8,88.8,101.6,109.6
	c39.2,16,56,32,56,55.2c0,25.6-21.6,42.4-54.4,42.4c-25.6,0-52.8-8-73.6-22.4c-3.2-2.4-7.2-2.4-11.2-1.6c-4,1.6-6.4,4-8,8
	l-13.6,37.6c-1.6,5.6,0.8,11.2,5.6,14.4c19.2,13.6,49.6,24,81.6,26.4v44.8c0,7.2,4,8.8,10.4,8.8h35.2c7.2,0,9.6-1.6,9.6-8.8v-48
	c56-12.8,90.4-54.4,90.4-106.4C486.928,268.01,459.728,233.61,393.328,206.41z"/>
<path style="fill:#FFC200;" d="M396.528,476.01v-48c48-10.4,74.4-38.4,85.6-75.2l-220.8-222.4c-3.2,9.6-4,20-4,30.4
	c0,61.6,48.8,88.8,100.8,109.6c39.2,16,56,32,56,55.2c0,25.6-21.6,42.4-54.4,42.4c-25.6,0-52.8-8-73.6-22.4
	c-3.2-2.4-7.2-2.4-11.2-1.6c-4,1.6-6.4,4-8,8l-13.6,37.6c-1.6,5.6,0.8,11.2,5.6,14.4c19.2,13.6,49.6,24,81.6,26.4v44.8
	c0,7.2,4,8.8,10.4,8.8h35.2C394.128,484.81,396.528,483.21,396.528,476.01z"/>
<path style="fill:#144D6D;" d="M173.328,410.41c-5.6,5.6-12,11.2-19.2,16c-52,37.6-113.6,37.6-141.6-0.8
	c-23.2-32-13.6-80.8,24-118.4c5.6-5.6,12-11.2,19.2-16c52-37.6,113.6-37.6,141.6,0.8C221.328,323.21,211.728,372.01,173.328,410.41z
	 M73.328,343.21c-20.8,20.8-26.4,43.2-19.2,52.8c8.8,12.8,41.6,10.4,70.4-10.4c4.8-3.2,8.8-7.2,12.8-11.2
	c20.8-20.8,26.4-43.2,19.2-52.8c-8.8-12.8-41.6-10.4-70.4,10.4C81.328,335.21,77.328,339.21,73.328,343.21z"/>
<path style="fill:#283944;" d="M125.328,263.21L125.328,263.21C125.328,263.21,124.528,263.21,125.328,263.21c-3.2,0-5.6,0.8-8,0.8
	h-0.8c-5.6,0.8-11.2,2.4-16.8,4c-0.8,0-0.8,0-1.6,0.8c-2.4,0.8-4,1.6-6.4,2.4c-0.8,0-1.6,0.8-2.4,0.8c-1.6,0.8-4,1.6-5.6,2.4
	c-0.8,0.8-1.6,0.8-2.4,1.6c-1.6,0.8-4,1.6-5.6,2.4c-0.8,0.8-1.6,0.8-3.2,1.6c-1.6,0.8-4,2.4-5.6,3.2c-0.8,1.6-1.6,1.6-2.4,2.4
	c-2.4,1.6-5.6,3.2-8,5.6c-6.4,4.8-12.8,10.4-19.2,16c-2.4,2.4-4,4-6.4,6.4c-0.8,0.8-0.8,0.8-1.6,1.6c-0.8,1.6-2.4,3.2-4,4.8
	c0,0.8-0.8,0.8-0.8,1.6c-0.8,1.6-2.4,3.2-4,5.6l-0.8,0.8c-1.6,2.4-2.4,4-4,6.4c0,0,0,0,0,0.8c-1.6,1.6-2.4,4-3.2,5.6h1.6
	c-1.6,2.4-1.6,4.8-1.6,7.2l0,0c-8,2.4-4,8.8-4.8,8.8h-0.8c-0.8,0-2.4,4.8-2.4,7.2v0.8l0,0c-4.8,16-4,33.6,1.6,48.8
	c31.2,13.6,75.2,6.4,113.6-21.6c6.4-4.8,12.8-10.4,19.2-16.8c32.8-32.8,44.8-74.4,32-105.6
	C157.328,264.01,141.328,261.61,125.328,263.21z M156.528,321.61c7.2,9.6,1.6,32-19.2,52.8c-4,4-8,8-12.8,11.2
	c-29.6,21.6-61.6,23.2-70.4,10.4c-2.4-3.2-3.2-7.2-3.2-12c0-1.6,0-2.4,0.8-4c0,0,0-0.8,0-1.6c0.8-1.6,0.8-2.4,0.8-3.2
	c0-0.8,0-0.8,0.8-1.6c0-0.8,0.8-1.6,0.8-3.2c0-0.8,0.8-1.6,0.8-1.6c3.2-8,9.6-16.8,17.6-25.6c4-4,8-8,12.8-11.2
	c11.2-8,23.2-13.6,34.4-16c0.8,0,2.4-0.8,3.2-0.8c1.6,0,4-0.8,5.6-0.8C142.128,312.81,152.528,315.21,156.528,321.61z"/>
<path style="fill:#8AA8A7;" d="M481.328,476.01c-44,0-120.8-45.6-189.6-115.2c-68.8-68.8-115.2-145.6-115.2-189.6
	c0-3.2,1.6-5.6,4.8-6.4c2.4-0.8,5.6-0.8,8,1.6l297.6,297.6c2.4,2.4,2.4,4.8,1.6,8C486.928,474.41,484.528,476.01,481.328,476.01z"/>
<path style="fill:#99B5B5;" d="M291.728,361.61c-68.8-68.8-115.2-145.6-115.2-189.6c0-3.2,1.6-5.6,4.8-6.4c2.4-0.8,5.6-0.8,8,1.6
	l3.2,3.2l179.2,258.4C345.328,410.41,318.128,388.01,291.728,361.61z"/>
<path style="fill:#144D6D;" d="M198.128,198.41c-28,37.6-89.6,38.4-141.6,0.8c-6.4-4.8-12.8-10.4-19.2-16
	c-37.6-37.6-48-86.4-24-118.4c28-37.6,89.6-38.4,141.6-0.8c6.4,4.8,12.8,10.4,19.2,16C211.728,117.61,221.328,166.41,198.128,198.41
	z M86.128,157.61c29.6,21.6,61.6,23.2,70.4,10.4c7.2-9.6,1.6-32-19.2-52.8c-4-4-8-8-12.8-11.2c-29.6-21.6-61.6-23.2-70.4-10.4
	c-7.2,9.6-1.6,32,19.2,52.8C77.328,150.41,81.328,154.41,86.128,157.61z"/>
<path style="fill:#283944;" d="M170.128,220.01c12.8-31.2,1.6-72.8-32-105.6c-5.6-5.6-12-11.2-19.2-16
	c-37.6-28-81.6-35.2-112.8-21.6c-6.4,15.2-6.4,32-1.6,49.6l0,0v-0.8c0,3.2,0.8,7.2,1.6,7.2h1.6c0.8,0-3.2,6.4,4.8,8.8l0,0
	c0,2.4,0,4.8,1.6,7.2h-0.8c0.8,2.4,1.6,4,3.2,6.4c0,0,0,0,0,0.8c1.6,2.4,2.4,4,4,6.4c0,0,0,0.8,0.8,0.8c1.6,1.6,2.4,4,4,5.6
	c0,0.8,0.8,0.8,0.8,1.6c0.8,0.8,2.4,2.4,4,4c0.8,0.8,0.8,0.8,1.6,1.6c1.6,2.4,4,4,6.4,6.4c5.6,5.6,12,11.2,19.2,16
	c2.4,1.6,5.6,4,8,5.6c0,0.8,0.8,0.8,1.6,1.6c1.6,0.8,4,2.4,5.6,3.2c0.8,0.8,1.6,0.8,3.2,1.6s4,1.6,5.6,2.4c0.8,0.8,1.6,0.8,2.4,1.6
	c1.6,0.8,4,1.6,5.6,2.4c0.8,0,1.6,0.8,2.4,0.8c2.4,0.8,4,1.6,6.4,2.4c0.8,0,0.8,0,1.6,0.8c5.6,1.6,11.2,3.2,16.8,4h0.8
	c2.4,0,4.8,0.8,7.2,0.8h0.8l0,0C141.328,228.01,157.328,225.61,170.128,220.01z M129.328,176.01c-1.6,0-4-0.8-5.6-0.8
	c-0.8,0-2.4-0.8-3.2-0.8c-11.2-2.4-22.4-8-34.4-16c-4.8-3.2-8.8-7.2-12.8-11.2c-8.8-8.8-14.4-17.6-17.6-25.6c0-0.8-0.8-1.6-0.8-1.6
	c-0.8-0.8-0.8-2.4-0.8-3.2s0-0.8-0.8-1.6c0-0.8-0.8-2.4-0.8-3.2c0,0,0-0.8,0-1.6c0-1.6-0.8-3.2-0.8-4c0-4.8,0.8-9.6,3.2-12
	c8.8-12.8,41.6-10.4,70.4,10.4c4.8,3.2,8.8,7.2,12.8,11.2c20.8,20.8,26.4,43.2,19.2,52.8
	C152.528,174.41,142.128,176.81,129.328,176.01z"/>
<path style="fill:#638280;" d="M246.928,250.41c0,10.4-8.8,24.8-19.2,24.8s-19.2-14.4-19.2-24.8s8.8-19.2,19.2-19.2
	C238.128,231.21,246.928,240.01,246.928,250.41z"/>
<circle style="fill:#FFC200;" cx="227.728" cy="250.41" r="19.2"/>
<path style="fill:#FFDA00;" d="M214.128,236.81c7.2-7.2,20-7.2,27.2,0s7.2,20,0,27.2"/>
<g>
</g>
<g>
</g>
<g>
</g>
<g>
</g>
<g>
</g>
<g>
</g>
<g>
</g>
<g>
</g>
<g>
</g>
<g>
</g>
<g>
</g>
<g>
</g>
<g>
</g>
<g>
</g>
<g>
</g>
</svg>
