<svg id="Layer_1" data-name="Layer 1" xmlns="http://www.w3.org/2000/svg" viewBox="0 0 208.89 114.5"><defs><style>.cls-1{fill:#ffc128;}.cls-2{fill:#ff9929;}</style></defs><title>Baaham Security (SVG PNG)</title><path class="cls-1" d="M200.27,106.62H51.05a0.66,0.66,0,1,1,0-1.31H200.27A0.66,0.66,0,0,1,200.27,106.62Z"/><path class="cls-1" d="M200.27,100.11H48.34a0.66,0.66,0,1,1,0-1.31H200.27A0.66,0.66,0,0,1,200.27,100.11Z"/><path class="cls-1" d="M200.27,93.59H52.88a0.66,0.66,0,1,1,0-1.31H200.27A0.66,0.66,0,0,1,200.27,93.59Z"/><path class="cls-1" d="M200.27,87.08H46.41a0.66,0.66,0,0,1,0-1.31H200.27A0.66,0.66,0,0,1,200.27,87.08Z"/><path class="cls-1" d="M200.27,80.56H72.09a0.66,0.66,0,0,1,0-1.31H200.27A0.66,0.66,0,0,1,200.27,80.56Z"/><path class="cls-1" d="M200.27,74.05H72.09a0.66,0.66,0,0,1,0-1.31H200.27A0.66,0.66,0,0,1,200.27,74.05Z"/><path class="cls-1" d="M200.27,67.54H39.7a0.66,0.66,0,0,1,0-1.31H200.27A0.66,0.66,0,0,1,200.27,67.54Z"/><path class="cls-1" d="M200.27,61H46.41a0.66,0.66,0,0,1,0-1.31H200.27A0.66,0.66,0,0,1,200.27,61Z"/><path class="cls-1" d="M200.27,54.51H43.85a0.66,0.66,0,1,1,0-1.31H200.27A0.66,0.66,0,0,1,200.27,54.51Z"/><path class="cls-1" d="M200.27,48H26.54a0.66,0.66,0,0,1,0-1.31H200.27A0.66,0.66,0,0,1,200.27,48Z"/><path class="cls-1" d="M200.27,41.48H21.88a0.66,0.66,0,0,1,0-1.31H200.27A0.66,0.66,0,0,1,200.27,41.48Z"/><path class="cls-1" d="M200.27,35H18.56a0.66,0.66,0,0,1,0-1.31h181.7A0.66,0.66,0,0,1,200.27,35Z"/><path class="cls-1" d="M200.27,28.45h-190a0.66,0.66,0,1,1,0-1.31h190A0.66,0.66,0,0,1,200.27,28.45Z"/><path class="cls-1" d="M200.27,21.94H8.62a0.66,0.66,0,1,1,0-1.31H200.27A0.66,0.66,0,0,1,200.27,21.94Z"/><path class="cls-1" d="M200.27,15.42H8.62a0.66,0.66,0,1,1,0-1.31H200.27A0.66,0.66,0,0,1,200.27,15.42Z"/><path class="cls-1" d="M200.27,8.91H8.62a0.66,0.66,0,1,1,0-1.31H200.27A0.66,0.66,0,0,1,200.27,8.91Z"/><path class="cls-2" d="M26.88,35.72a1.63,1.63,0,1,0,0-3.26H10.25a1.63,1.63,0,1,0,0,3.26H26.88Z"/><path class="cls-2" d="M10.25,29.19h10a1.63,1.63,0,1,0,0-3.26h-10A1.63,1.63,0,1,0,10.25,29.19Z"/><path class="cls-2" d="M34.43,42.26a1.63,1.63,0,0,0,0-3.26H11.85a1.63,1.63,0,1,0,0,3.26H34.43Z"/><path class="cls-2" d="M41.63,47.17A1.63,1.63,0,0,0,40,45.54H13.08a1.63,1.63,0,0,0,0,3.26H40A1.63,1.63,0,0,0,41.63,47.17Z"/><path class="cls-2" d="M46.41,53.71a1.63,1.63,0,0,0-1.63-1.63H15.91a1.63,1.63,0,1,0,0,3.26H44.78A1.63,1.63,0,0,0,46.41,53.71Z"/><path class="cls-2" d="M49.33,55.34H73.84a1.63,1.63,0,0,0,0-3.26H49.33A1.63,1.63,0,0,0,49.33,55.34Z"/><path class="cls-2" d="M49.33,48.8H77.89a1.63,1.63,0,1,0,0-3.26H49.33A1.63,1.63,0,0,0,49.33,48.8Z"/><path class="cls-2" d="M52.24,42.26H80.81a1.63,1.63,0,0,0,0-3.26H52.24A1.63,1.63,0,1,0,52.24,42.26Z"/><path class="cls-2" d="M55.94,35.72H84.5a1.63,1.63,0,0,0,0-3.26H55.94A1.63,1.63,0,1,0,55.94,35.72Z"/><path class="cls-2" d="M86.86,25.93H61a1.63,1.63,0,1,0,0,3.26H86.86A1.63,1.63,0,0,0,86.86,25.93Z"/><path class="cls-2" d="M71.13,22.65H86.86a1.63,1.63,0,0,0,0-3.26H71.13A1.63,1.63,0,0,0,71.13,22.65Z"/><path class="cls-2" d="M79.79,16.13H84.5a1.63,1.63,0,0,0,0-3.26H79.79A1.63,1.63,0,0,0,79.79,16.13Z"/><path class="cls-2" d="M70.22,60.25a1.63,1.63,0,0,0-1.63-1.63H19.11a1.63,1.63,0,1,0,0,3.26H68.59A1.63,1.63,0,0,0,70.22,60.25Z"/><path class="cls-2" d="M66.52,66.78a1.63,1.63,0,0,0-1.63-1.63h-40a1.63,1.63,0,1,0,0,3.26h40A1.63,1.63,0,0,0,66.52,66.78Z"/><path class="cls-2" d="M74.89,73.32a1.63,1.63,0,0,0-1.63-1.63H34.34a1.63,1.63,0,1,0,0,3.26H73.26A1.63,1.63,0,0,0,74.89,73.32Z"/><path class="cls-2" d="M77.48,78.23H41.33a1.63,1.63,0,0,0-1.63,1.63h0a1.63,1.63,0,0,0,1.63,1.63H77.48A1.63,1.63,0,1,0,77.48,78.23Z"/><path class="cls-2" d="M55.33,88a1.63,1.63,0,1,0,0-3.26H40.07a1.63,1.63,0,1,0,0,3.26H55.33Z"/><path class="cls-2" d="M57.78,91.31H41.08a1.63,1.63,0,1,0,0,3.26h16.7A1.63,1.63,0,0,0,57.78,91.31Z"/><path class="cls-2" d="M56.9,97.82h-12a1.63,1.63,0,1,0,0,3.26h12A1.63,1.63,0,0,0,56.9,97.82Z"/><path class="cls-2" d="M54.7,104.34H51.05a1.63,1.63,0,1,0,0,3.26H54.7A1.63,1.63,0,1,0,54.7,104.34Z"/><path class="cls-2" d="M84.9,86.4a1.63,1.63,0,0,0-1.63-1.63H62.59a1.63,1.63,0,0,0,0,3.26H83.27A1.63,1.63,0,0,0,84.9,86.4Z"/><path class="cls-2" d="M86.11,91.31h-18a1.63,1.63,0,1,0,0,3.26h18A1.63,1.63,0,0,0,86.11,91.31Z"/><path class="cls-2" d="M84.85,97.82H77.59a1.63,1.63,0,1,0,0,3.26h7.25A1.63,1.63,0,0,0,84.85,97.82Z"/></svg>